<svg width="16" height="16" viewBox="0 0 16 16" fill="none" xmlns="http://www.w3.org/2000/svg">
    <path fill-rule="evenodd" clip-rule="evenodd"
          d="M2.39437 14.8706C2.63727 15.0014 2.93238 14.9883 3.16273 14.8365L8 11.6483L12.8373 14.8365C13.0676 14.9883 13.3627 15.0014 13.6056 14.8706C13.8485 14.7397 14 14.4861 14 14.2102V5.21023C14 4.95807 13.8733 4.72278 13.6627 4.58402L8.41273 1.12379C8.16233 0.958747 7.83767 0.958747 7.58727 1.12379L2.33727 4.58402C2.12672 4.72278 2 4.95807 2 5.21023V14.2102C2 14.4861 2.15147 14.7397 2.39437 14.8706ZM3.5 12.8177V5.61417L8 2.64826L12.5 5.61417V12.8177L8.41273 10.1238C8.16233 9.95875 7.83767 9.95875 7.58727 10.1238L3.5 12.8177Z"
          fill="#F15B50"/>
</svg>
