<svg width="16" height="16" viewBox="0 0 16 16" fill="none" xmlns="http://www.w3.org/2000/svg">
    <path fill-rule="evenodd" clip-rule="evenodd"
          d="M7.5874 10.1238L2.0874 13.7488L2.91287 15.0012L8.00014 11.6483L13.0874 15.0012L13.9129 13.7488L8.41287 10.1238C8.16246 9.95874 7.83781 9.95874 7.5874 10.1238ZM7.5874 5.62378L2.0874 9.24878L2.91287 10.5012L8.00014 7.14825L13.0874 10.5012L13.9129 9.24878L8.41287 5.62378C8.16246 5.45874 7.83781 5.45874 7.5874 5.62378ZM7.5874 1.12378L2.0874 4.74878L2.91287 6.00122L8.00014 2.64825L13.0874 6.00122L13.9129 4.74878L8.41287 1.12378C8.16246 0.958741 7.83781 0.958741 7.5874 1.12378Z"
          fill="#F15B50"/>
</svg>
