<svg width="16" height="16" viewBox="0 0 16 16" fill="none" xmlns="http://www.w3.org/2000/svg">
    <path fill-rule="evenodd" clip-rule="evenodd"
          d="M7.5874 5.87622L2.0874 2.25122L2.91287 0.998779L8.00014 4.35175L13.0874 0.998779L13.9129 2.25122L8.41287 5.87622C8.16246 6.04126 7.83781 6.04126 7.5874 5.87622ZM7.5874 10.3762L2.0874 6.75122L2.91287 5.49878L8.00014 8.85175L13.0874 5.49878L13.9129 6.75122L8.41287 10.3762C8.16246 10.5413 7.83781 10.5413 7.5874 10.3762ZM7.5874 14.8762L2.0874 11.2512L2.91287 9.99878L8.00014 13.3517L13.0874 9.99878L13.9129 11.2512L8.41287 14.8762C8.16246 15.0413 7.83781 15.0413 7.5874 14.8762Z"
          fill="#4688EC"/>
</svg>
